<svg xmlns="http://www.w3.org/2000/svg" viewBox="0 0 240 70"><defs><style>.cls-1{fill:#1e459e;}.cls-2{fill:#fff;}</style></defs><title>headerLogoB</title><g id="レイヤー_2" data-name="レイヤー 2"><g id="レイヤー_1-2" data-name="レイヤー 1"><path class="cls-1" d="M109.25,46.94c-4.39,0-4.11,5.93-4.11,5.93V70h9.4V52.29C114.61,46.21,109.25,46.94,109.25,46.94Z"/><path class="cls-1" d="M240,0H0V70H27.89V35.05H12.1V25.84H52.91v9.21H39.6V70H64.8c-.47-.13-.94-.26-1.38-.42a20.82,20.82,0,0,1-6.9-4.16,17.93,17.93,0,0,1-4.74-6.73,23.85,23.85,0,0,1-1.56-9q0-9.85,6.05-15.58t16.38-5.72q7.65,0,12.64,3.7a14.45,14.45,0,0,1,6,10.39H79.47a8,8,0,0,0-2.6-4.34,7.35,7.35,0,0,0-4.66-1.41,8.44,8.44,0,0,0-7.09,3.51q-2.66,3.51-2.65,9.39T65.25,59a8.82,8.82,0,0,0,7.29,3.54,7.59,7.59,0,0,0,5.16-1.79A7.3,7.3,0,0,0,80.11,56H91.76a15.1,15.1,0,0,1-6.32,11A19.62,19.62,0,0,1,79.09,70H94.36V25.85h11V42.94s2.51-4.55,10.19-4a9.68,9.68,0,0,1,7.09,3.32,11.64,11.64,0,0,1,2.9,8.13V70H129V39.31H117.8V32.54H129V25.85h11.24v6.71H129V39.3h11.24V70h13.11l-.17,0a16,16,0,0,1-5.3-3.2,13.78,13.78,0,0,1-3.68-5.21,18.43,18.43,0,0,1-1.19-6.86c0-5,1.57-9,4.67-12s7.3-4.4,12.51-4.4a15.92,15.92,0,0,1,9.71,2.86,11.36,11.36,0,0,1,4.74,8.14l.12,1H164.55l-.17-.62a5,5,0,0,0-1.6-2.72,4.56,4.56,0,0,0-2.87-.85,5.31,5.31,0,0,0-4.49,2.22,10.3,10.3,0,0,0-1.76,6.33,10,10,0,0,0,1.84,6.3,5.57,5.57,0,0,0,4.65,2.26,4.63,4.63,0,0,0,3.2-1.1,4.42,4.42,0,0,0,1.47-3l.09-.74h10.18l-.1.93a11.82,11.82,0,0,1-4.94,8.58A15,15,0,0,1,166,70h74Z"/><polygon class="cls-2" points="52.91 35.05 52.91 25.84 12.1 25.84 12.1 35.05 27.89 35.05 27.89 70 39.6 70 39.6 35.05 52.91 35.05"/><path class="cls-2" d="M91.76,56H80.11a7.3,7.3,0,0,1-2.41,4.81,7.59,7.59,0,0,1-5.16,1.79A8.82,8.82,0,0,1,65.25,59q-2.79-3.52-2.78-9.37t2.65-9.39a8.44,8.44,0,0,1,7.09-3.51,7.35,7.35,0,0,1,4.66,1.41,8,8,0,0,1,2.6,4.34H91.34a14.45,14.45,0,0,0-6-10.39q-5-3.7-12.64-3.7-10.32,0-16.38,5.72T50.22,49.71a23.85,23.85,0,0,0,1.56,9,17.93,17.93,0,0,0,4.74,6.73,20.82,20.82,0,0,0,6.9,4.16c.44.16.91.29,1.38.42H79.09a19.62,19.62,0,0,0,6.35-3.08A15.1,15.1,0,0,0,91.76,56Z"/><path class="cls-2" d="M175,59.32l.1-.93H164.91l-.09.74a4.42,4.42,0,0,1-1.47,3,4.63,4.63,0,0,1-3.2,1.1,5.57,5.57,0,0,1-4.65-2.26,10,10,0,0,1-1.84-6.3,10.3,10.3,0,0,1,1.76-6.33,5.31,5.31,0,0,1,4.49-2.22,4.56,4.56,0,0,1,2.87.85,5,5,0,0,1,1.6,2.72l.17.62H174.8l-.12-1a11.36,11.36,0,0,0-4.74-8.14,15.92,15.92,0,0,0-9.71-2.86c-5.21,0-9.42,1.48-12.51,4.4s-4.67,7-4.67,12a18.43,18.43,0,0,0,1.19,6.86,13.78,13.78,0,0,0,3.68,5.21,16,16,0,0,0,5.3,3.2l.17,0H166a15,15,0,0,0,4.06-2.1A11.82,11.82,0,0,0,175,59.32Z"/><path class="cls-2" d="M122.59,42.27A9.68,9.68,0,0,0,115.5,39c-7.68-.56-10.19,4-10.19,4V25.85h-11V70h10.78V52.87s-.28-5.93,4.11-5.93c0,0,5.36-.73,5.29,5.35V70h10.95V50.4A11.64,11.64,0,0,0,122.59,42.27Z"/><polygon class="cls-2" points="129.04 39.3 129.04 39.31 129.04 70 140.28 70 140.28 39.3 129.04 39.3"/><polygon class="cls-2" points="140.28 32.56 140.28 25.85 129.04 25.85 129.04 32.54 129.04 32.56 140.28 32.56"/><polygon class="cls-2" points="129.04 32.56 129.04 32.54 117.8 32.54 117.8 39.31 129.04 39.31 129.04 39.3 129.04 32.56"/></g></g></svg>