<svg xmlns="http://www.w3.org/2000/svg" viewBox="0 0 40 40"><defs><style>.cls-1{fill:#fff;}</style></defs><title>swanMark</title><g id="レイヤー_2" data-name="レイヤー 2"><g id="レイヤー_1-2" data-name="レイヤー 1"><path class="cls-1" d="M20.11,0A20,20,0,1,0,40,20.11,20,20,0,0,0,20.11,0m0,.39A19.59,19.59,0,0,1,34.88,32.75c2.48-6.64-3.52-8.38-5.24-9.81a8.33,8.33,0,0,1-2.82-6.28c-.09-2.67.11-4,.85-5.39s1.8-1.44,2.09-1.2,2.27,1.71,3.48,2.54a4.22,4.22,0,0,0,2.18,2,6.28,6.28,0,0,1-1.84-4.14c-.1-1.55-.75-2.92-2.39-3.31s-4-.66-5.35,2.15c-1.27,2.54-.68,3.37-.28,5.7.19,1.13.6,5.59-.71,7.78a11.19,11.19,0,0,1-9.37,4.79c-6.64,0-12.82-4.94-13.16-16A19.63,19.63,0,0,1,20.11.39"/><path class="cls-1" d="M7.88,19.64a.94.94,0,0,0,.71-.34,2.94,2.94,0,0,0,.16-1.22l0-5.35-.12-.2a1.15,1.15,0,0,0-.33-.39,1,1,0,0,0-.41-.09v-.22H9.45l3.42,5.83,0-4a2.4,2.4,0,0,0-.21-1.3.91.91,0,0,0-.63-.25v-.23h2.1v.23a.91.91,0,0,0-.69.33,2.79,2.79,0,0,0-.17,1.22l0,6.4H13.1L9.17,13.35l0,4.73a2.5,2.5,0,0,0,.2,1.3,1,1,0,0,0,.63.27v.22H7.87Z"/><path class="cls-1" d="M15,11.87l5.06,0,0,2.07h-.22a3,3,0,0,0-.39-1.27,1.29,1.29,0,0,0-1-.3H18l0,6.21a1.35,1.35,0,0,0,.16.87,1.13,1.13,0,0,0,.7.23v.22H16.19v-.23a1,1,0,0,0,.71-.25,2,2,0,0,0,.15-1l0-6.08h-.5a1.4,1.4,0,0,0-1,.28,2.79,2.79,0,0,0-.41,1.27h-.22Z"/><path class="cls-1" d="M14.38,19.83a.35.35,0,0,1-.36.36.36.36,0,0,1-.37-.37.37.37,0,0,1,.37-.36.35.35,0,0,1,.36.37"/><path class="cls-1" d="M20.58,19.86a.37.37,0,1,1-.74,0,.37.37,0,1,1,.74,0"/></g></g></svg>