<svg xmlns="http://www.w3.org/2000/svg" viewBox="0 0 209 209"><defs><style>.cls-1,.cls-4{fill:#fff;}.cls-1{opacity:0.5;}.cls-2{fill:#1e459e;}.cls-3{fill:#ef8200;}</style></defs><title>TChicLOGO_BIGB</title><g id="レイヤー_2" data-name="レイヤー 2"><g id="レイヤー_1-2" data-name="レイヤー 1"><rect class="cls-1" width="209" height="209"/><path d="M113.83,164.51c-4.35,0-4.07,5.87-4.07,5.87V186.8h9.31v-17C119.14,163.79,113.83,164.51,113.83,164.51Z"/><path d="M22,143.62H58v9.11H44.85V186.8H68.13a20.58,20.58,0,0,1-6.52-4,17.66,17.66,0,0,1-4.7-6.66,23.67,23.67,0,0,1-1.54-8.9q0-9.75,6-15.42t16.22-5.67q7.58,0,12.52,3.66a14.31,14.31,0,0,1,6,10.29H84.34a8,8,0,0,0-2.58-4.29,7.23,7.23,0,0,0-4.62-1.4,8.34,8.34,0,0,0-7,3.47q-2.64,3.48-2.64,9.31t2.76,9.28a8.75,8.75,0,0,0,7.22,3.5,7.49,7.49,0,0,0,5.11-1.77A7.17,7.17,0,0,0,85,173.44H96.5a14.91,14.91,0,0,1-6.25,10.86,19.15,19.15,0,0,1-4.63,2.5H99.08V143.62h10.85v16.93s2.48-4.5,10.08-4a9.58,9.58,0,0,1,7,3.3,11.46,11.46,0,0,1,2.87,8.05V186.8h3.52V157H122.3v-6.7h11.13v-6.63h11.13v6.65H133.43V157h11.13V186.8h11.63a15.68,15.68,0,0,1-4.06-2.67,13.7,13.7,0,0,1-3.64-5.16,18.09,18.09,0,0,1-1.19-6.79c0-5,1.56-8.94,4.63-11.84s7.23-4.36,12.39-4.36a15.81,15.81,0,0,1,9.62,2.83,11.28,11.28,0,0,1,4.69,8.07l.12.94H168.6l-.17-.62a4.94,4.94,0,0,0-1.59-2.69,4.46,4.46,0,0,0-2.84-.84,5.24,5.24,0,0,0-4.44,2.2,10.19,10.19,0,0,0-1.75,6.27,9.82,9.82,0,0,0,1.83,6.24,5.51,5.51,0,0,0,4.6,2.23,4.59,4.59,0,0,0,3.17-1.08,4.37,4.37,0,0,0,1.45-2.94l.09-.74H179l-.1.92a11.69,11.69,0,0,1-4.89,8.5,15,15,0,0,1-2.64,1.53H187V104.5H22Z"/><rect x="22" y="152.73" width="11.25" height="34.07"/><rect class="cls-2" x="22" y="22.2" width="165" height="82.3"/><rect class="cls-3" x="22" y="104.5" width="165" height="0.01"/><polygon class="cls-4" points="58.03 152.73 58.03 143.62 22 143.62 22 152.73 33.25 152.73 33.25 186.8 44.85 186.8 44.85 152.73 58.03 152.73"/><path class="cls-4" d="M96.5,173.44H85a7.17,7.17,0,0,1-2.38,4.77A7.49,7.49,0,0,1,77.47,180a8.75,8.75,0,0,1-7.22-3.5q-2.76-3.51-2.76-9.28t2.64-9.31a8.34,8.34,0,0,1,7-3.47,7.23,7.23,0,0,1,4.62,1.4,8,8,0,0,1,2.58,4.29H96.09a14.31,14.31,0,0,0-6-10.29q-4.95-3.66-12.52-3.66-10.22,0-16.22,5.67t-6,15.42a23.67,23.67,0,0,0,1.54,8.9,17.66,17.66,0,0,0,4.7,6.66,20.58,20.58,0,0,0,6.52,4H85.62a19.15,19.15,0,0,0,4.63-2.5A14.91,14.91,0,0,0,96.5,173.44Z"/><path class="cls-4" d="M178.93,176.77l.1-.92H169l-.09.74a4.37,4.37,0,0,1-1.45,2.94,4.59,4.59,0,0,1-3.17,1.08,5.51,5.51,0,0,1-4.6-2.23,9.82,9.82,0,0,1-1.83-6.24,10.19,10.19,0,0,1,1.75-6.27,5.24,5.24,0,0,1,4.44-2.2,4.46,4.46,0,0,1,2.84.84,4.94,4.94,0,0,1,1.59,2.69l.17.62h10.15l-.12-.94a11.28,11.28,0,0,0-4.69-8.07,15.81,15.81,0,0,0-9.62-2.83c-5.16,0-9.33,1.47-12.39,4.36s-4.63,6.89-4.63,11.84a18.09,18.09,0,0,0,1.19,6.79,13.7,13.7,0,0,0,3.64,5.16,15.68,15.68,0,0,0,4.06,2.67H171.4a15,15,0,0,0,2.64-1.53A11.69,11.69,0,0,0,178.93,176.77Z"/><path class="cls-4" d="M127,159.89a9.58,9.58,0,0,0-7-3.3c-7.6-.54-10.08,4-10.08,4V143.62H99.08V186.8h10.68V170.38s-.28-5.87,4.07-5.87c0,0,5.31-.72,5.24,5.3v17h10.84V167.94A11.46,11.46,0,0,0,127,159.89Z"/><polygon class="cls-4" points="144.56 150.27 144.56 143.62 133.43 143.62 133.43 150.25 133.43 150.27 144.56 150.27"/><polygon class="cls-4" points="133.43 156.95 133.43 156.95 133.43 186.8 144.56 186.8 144.56 156.95 133.43 156.95"/><polygon class="cls-4" points="133.43 150.27 133.43 150.25 122.3 150.25 122.3 156.95 133.43 156.95 133.43 156.95 133.43 150.27"/></g></g></svg>